<svg xmlns="http://www.w3.org/2000/svg" width="361.196" height="254.309" viewBox="0 0 361.196 254.309"><defs><style>.a{fill:#404040;}</style></defs><path class="a" d="M420.653,696.483c-6.284-9.095-13.1-14.972-19.139-18.079a72.67,72.67,0,0,1,9.143-3.964s-13.925-5.823-27.917-6.471L370.787,639.33c2.577-.908,4.916-1.421,6.547-1.16,6.408,1.026,9.356-4.613,10.51-6.151s.768-7.049-.9-8.459-4.23-.256-4.23-.256,5.9-5.768,4.742-11.919-2.948-12.176-5.9-14.483-7.69-1.666-7.69-1.666,2.691-5.639,2.051-7.69-7.177-11.15-11.15-11.15a26.7,26.7,0,0,0-8.587,1.922l1.026-10,9.227-11.534a9.231,9.231,0,0,0,4.485-.256c2.051-.768,8.331-9.227,9.1-10.893s4.614-13.33-2.178-13.073-10.894,9.612-13.073,11.92-.384,11.278-.384,11.278l-9.227,12.3L353.24,579.6l-3.716,3.973.448,3.845-11.15,7.818a27.117,27.117,0,0,0-.577,5.255c-1.665.255-5.126,2.5-5.126,2.5s-6.28-6.792-7.241-6.985a3.473,3.473,0,0,0-2.179.706l.449-1.923c.7-2.884-1.923-4.422-3.781-4.358s-3.461.962-3.781,3.653.064,3.524.064,3.524l-1.281-.192-10.061,3.909-10.766,3.845-3.4-.576-.256,4.036,4.358.9,15.763-5.639-8.139,5.639,5.9,1.73,13.2-7.433a32.592,32.592,0,0,1,9.805,9.74c-7.114-1.73-32.361-1.474-38.9-1.281s-33.258,6.728-38.449,7.977-12.5,9.42-12.5,9.42-8.075-1.25-14.13,2.211-20.569,5-24.03,4.422-12.015-6.536-13.361-8.459-13.168-12.111-16.245-10.572-18.84,3.268-22.108,2.883-7.4-4.422-9.515-6.44-12.784-22.4-12.784-22.4-10.573-24.992-13.073-29.125-10.541-15.412-13.616-17.974-14.354-8.2-14.354-8.2c-6.921,3.717-4.229,11.662-4.229,11.662L103.9,611.128H99.673l-6.729-7.979s-19.7-.865-23.069.193-1.73,2.979-1.73,2.979l12.592,15.861c-4.133,2.5-3.172,12.4-3.172,12.4l67.356,22.246a92.058,92.058,0,0,0-21.09,3.515s-24.8,12.3-31.144,30.182-3.46,38.449,2.115,45.946,19.416,29.99,46.522,32.873,45.178-10.958,50.56-17.3a60.433,60.433,0,0,0,6.692-9.857c7.094,4.7,14.61,9.48,16.633,10.049a14.365,14.365,0,0,0,7.433.129s5,3.332,9.74,3.332,25.761-.384,25.761-.384,27.811-1.41,37.423-4.23,28.067-21.4,31.655-24.222,9.869-18.583,6.152-24.607-11.278-14.1-11.278-14.1l3.973-1.666,5.768-8.2s5.255,2.819,8.074,2.05,7.049-2.178,7.049-2.178,1.58-3.329,3.362-7.268l3.427,8.245a55.972,55.972,0,0,0-10.25,13.505l6.933.94c-5.615,7.3-12.077,19.9-10.265,38.021,3.075,30.759,24.095,46.651,24.095,46.651s10.509,10,32.3,8.458,32.3-38.448,32.3-38.448S430.393,710.581,420.653,696.483Zm-272.791,57.1c-12.881,0-38.833-12.111-40.563-35.949s19.224-39.6,19.224-39.6,12.5-7.113,23.069-6.152c22.94,2.373,35.455,20.238,38.1,37.419l-15.018.739c-1.537-15.161-8.011-21.762-26.541-22.779,0,0-.282.015-.788.063-4.5.427-26.767,3.522-26.767,22.878,0,21.531,17.174,29.348,25.5,29.99,6.333.486,19.99-1.923,26.011-11.831l13.506,4.016C175.345,745.253,157.85,753.579,147.862,753.579ZM414.5,713.913c.3,1.284.554,2.9.78,4.7l-10.134,3.72-.13-.984-4.755-11.394,8.087-8.086-.027-.481A31.3,31.3,0,0,1,414.5,713.913Zm-45.626-5.383-3.075,8.715-5.505-3.73c1.729-6.3,4.624-14.01,6.348-16.52Zm27.822-7.118-4.243-10.166c.679.184,1.363.383,2.053.623a30.846,30.846,0,0,1,10.847,6.382Zm-43.385-37.34a27.221,27.221,0,0,0,1.978-5.654c0-2.178-1.665-10.381-1.665-10.381s5.129-3.228,10.836-6l10.266,26.224a30.547,30.547,0,0,0-5.851,1.312,38.03,38.03,0,0,0-10.68,5.751Zm20,97.722c-2.218-2.142-4.166-4.146-5.719-5.332-3.1-2.369-6.062-16.773-7.613-26.568l16.072,16.827Zm20.5,9.352a24.99,24.99,0,0,1-6.485-.331,16.443,16.443,0,0,1-5.872-2.346l3.052-15.083,11.535-10Zm3.16-.667,4.224-2.112A17.3,17.3,0,0,1,396.976,770.481Zm8.811-5.815c-1.148,1.055-2.22,1.965-3.254,2.75l7.611-31.459,6.345-2.214c.143,2.585.243,4.628.319,5.546C417.064,742.365,412.194,758.77,405.786,764.666Z" transform="translate(-67.748 -532.561)"/></svg>